<?xml version="1.0" encoding="utf-8"?>
<!-- Generator: Adobe Illustrator 17.0.0, SVG Export Plug-In . SVG Version: 6.00 Build 0)  -->
<!DOCTYPE svg PUBLIC "-//W3C//DTD SVG 1.1//EN" "http://www.w3.org/Graphics/SVG/1.1/DTD/svg11.dtd">
<svg version="1.1" id="Capa_1" xmlns="http://www.w3.org/2000/svg" xmlns:xlink="http://www.w3.org/1999/xlink" x="0px" y="0px"
	 width="257.469px" height="306.165px" viewBox="0 0 257.469 306.165" enable-background="new 0 0 257.469 306.165"
	 xml:space="preserve">
<polygon fill="#1E1F1D" fill-opacity="0.15" points="128.734,306.165 0,231.84 0,83.19 128.734,8.866 257.469,83.19 257.469,231.84 
	"/>
<polygon fill="#1E1E1C" fill-opacity="0.5" points="64.857,91.801 30.91,72.202 30.91,33.005 64.857,13.406 98.803,33.005 
	98.803,72.202 "/>
<polygon fill="#1E1E1C" fill-opacity="0.5" stroke="#FFFFFF" stroke-width="2.1171" stroke-miterlimit="10" points="38.32,67.924 
	38.32,37.282 64.857,21.962 91.393,37.282 91.393,67.924 64.857,83.245 "/>
<g>
	<g>
		<path fill="#FFFFFF" d="M64.841,43.917H55.83v-2.08c1.32-0.099,2.517-0.23,3.59-0.396c1.072-0.165,2.013-0.479,2.822-0.941
			c0.809-0.462,1.486-1.13,2.03-2.005c0.545-0.875,0.949-2.055,1.213-3.541h2.525v34.909h-3.169V43.917z"/>
	</g>
</g>
<polygon fill="#1E1F1D" fill-opacity="0.75" points="41.505,86.664 23.981,76.546 6.456,86.664 6.456,106.899 23.981,117.017 
	41.505,106.899 "/>
<polygon fill="#E97B08" points="38,88.687 23.981,80.593 9.961,88.687 9.961,104.876 23.981,112.97 38,104.876 "/>
<polygon fill="#1E1F1D" fill-opacity="0.75" points="153.151,42.289 153.314,14.303 129.159,0.169 104.841,14.021 104.678,42.007 
	128.833,56.141 "/>
<polygon fill="#1E1F1D" fill-opacity="0.75" points="41.505,127.135 23.981,117.017 6.456,127.135 6.456,147.371 23.981,157.488 
	41.505,147.371 "/>
<polygon fill="#1E1F1D" fill-opacity="0.75" points="41.505,167.606 23.981,157.488 6.456,167.606 6.456,187.842 23.981,197.96 
	41.505,187.842 "/>
<polygon fill="#1E1F1D" fill-opacity="0.75" points="41.505,228.313 23.981,238.431 6.456,228.313 6.456,208.077 23.981,197.96 
	41.505,208.077 "/>
<polygon fill="#E97B08" points="37.124,129.664 23.981,122.076 10.837,129.664 10.837,144.841 23.981,152.429 37.124,144.841 "/>
<polygon fill="#E97B08" points="34.495,171.653 23.981,165.583 13.466,171.653 13.466,183.795 23.981,189.865 34.495,183.795 "/>
<polygon fill="#E97B08" points="37.124,225.784 23.981,233.372 10.837,225.784 10.837,210.607 23.981,203.019 37.124,210.607 "/>
<path opacity="0.7" fill="#FFFFFF" d="M26.904,179.718c-2.6-4.403-2.923-6.961-2.923-6.961s-0.323,2.557-2.923,6.961
	c-1.756,2.974-1.972,7.2,2.923,7.2S28.66,182.692,26.904,179.718z"/>
<path opacity="0.7" fill="#FFFFFF" d="M20.166,179.296c0.87-1.474,1.472-2.729,1.893-3.743c-1.882-3.54-2.141-5.563-2.141-5.563
	s-0.323,2.557-2.923,6.961c-1.631,2.762-1.926,6.597,1.958,7.132C18.759,182.457,19.356,180.667,20.166,179.296z"/>
<path opacity="0.7" fill="#FFFFFF" d="M30.967,176.949c-2.6-4.403-2.923-6.961-2.923-6.961s-0.259,2.023-2.141,5.563
	c0.42,1.014,1.022,2.269,1.893,3.743c0.81,1.371,1.406,3.161,1.213,4.786C32.893,183.547,32.598,179.711,30.967,176.949z"/>
<g opacity="0.7">
	<path fill="#FFFFFF" d="M29.866,131.681c-0.215-1.569-1.636-2.689-3.174-2.503c-0.326,0.04-0.625,0.145-0.902,0.285l-0.006-0.009
		l-0.062,0.039c-0.089,0.048-0.17,0.104-0.252,0.161l-5.441,3.48c-0.003,0.002-0.005,0.004-0.008,0.005l-0.154,0.098l0.001,0.002
		c-0.99,0.665-1.57,1.869-1.393,3.161c0.249,1.814,1.892,3.111,3.671,2.895c0.555-0.067,1.057-0.274,1.478-0.581l0,0l0.001,0
		c0.112-0.082,0.217-0.174,0.317-0.269l5.005-4.252c0.006-0.005,0.012-0.01,0.018-0.015l0.008-0.007l-0.001-0.001
		C29.636,133.57,30,132.654,29.866,131.681z M22.064,138.678c-1.444,0.175-2.778-0.877-2.979-2.35
		c-0.202-1.473,0.805-2.808,2.248-2.983c1.444-0.175,2.778,0.877,2.979,2.35C24.514,137.167,23.507,138.503,22.064,138.678z"/>
	<path fill="#FFFFFF" d="M21.463,134.298c-0.928,0.112-1.575,0.971-1.445,1.917c0.13,0.946,0.987,1.622,1.915,1.51
		c0.928-0.112,1.574-0.971,1.445-1.917C23.248,134.861,22.391,134.185,21.463,134.298z M21.827,136.953
		c-0.51,0.062-0.981-0.31-1.052-0.83c-0.071-0.52,0.284-0.992,0.794-1.053c0.51-0.062,0.981,0.31,1.052,0.83
		C22.692,136.419,22.337,136.891,21.827,136.953z"/>
	<path fill="#FFFFFF" d="M24.437,140.428c-0.897,0.254-1.398,1.203-1.12,2.12c0.278,0.917,1.23,1.454,2.127,1.2
		c0.897-0.254,1.398-1.203,1.12-2.12C26.286,140.711,25.334,140.174,24.437,140.428z M25.217,142.999
		c-0.493,0.14-1.016-0.156-1.169-0.659c-0.153-0.504,0.123-1.025,0.616-1.165s1.016,0.156,1.169,0.659
		C25.985,142.338,25.709,142.86,25.217,142.999z"/>
	<path fill="#FFFFFF" d="M17.505,139.667c-0.897,0.254-1.398,1.203-1.12,2.12c0.278,0.917,1.23,1.454,2.127,1.2
		c0.897-0.254,1.398-1.203,1.12-2.12C19.353,139.95,18.401,139.413,17.505,139.667z M18.284,142.239
		c-0.493,0.14-1.016-0.156-1.169-0.659c-0.153-0.504,0.123-1.025,0.616-1.165c0.493-0.14,1.016,0.156,1.169,0.659
		C19.053,141.578,18.777,142.099,18.284,142.239z"/>
	<path fill="#FFFFFF" d="M32.306,136.545c-0.366-1.207-1.439-2.004-2.609-2.075l-0.27,0.226l-5.026,4.27
		c-0.093,0.09-0.22,0.201-0.356,0.3c-0.484,0.353-1.05,0.581-1.643,0.679c-0.655,0.806-0.908,1.926-0.575,3.024
		c0.533,1.757,2.358,2.787,4.078,2.3c0.536-0.152,0.999-0.434,1.365-0.803l0,0l0-0.001c0.098-0.098,0.186-0.205,0.27-0.315
		l4.26-4.978c0.005-0.006,0.01-0.012,0.015-0.018l0.007-0.008l-0.001-0.001C32.379,138.45,32.592,137.488,32.306,136.545z
		 M25.723,144.67c-1.395,0.395-2.877-0.44-3.31-1.867c-0.432-1.426,0.348-2.903,1.744-3.298c1.395-0.395,2.877,0.441,3.31,1.867
		C27.899,142.798,27.119,144.274,25.723,144.67z"/>
	<path fill="#FFFFFF" d="M21.941,139.827c-0.113-0.003-0.225-0.005-0.337-0.018l0,0c-1.691-0.185-3.051-1.421-3.458-3.062
		l-2.237,1.99c-0.002,0.002-0.005,0.004-0.007,0.006l-0.136,0.121l0.001,0.002c-0.87,0.811-1.251,2.091-0.872,3.342
		c0.533,1.757,2.358,2.787,4.078,2.3c0.536-0.152,0.999-0.434,1.365-0.803l0,0l0.001-0.001c0.098-0.098,0.186-0.205,0.27-0.315
		l0.707-0.826C21.182,141.599,21.402,140.628,21.941,139.827z M18.791,143.91c-1.395,0.395-2.877-0.44-3.31-1.867
		c-0.432-1.426,0.348-2.903,1.744-3.298c1.395-0.395,2.877,0.44,3.31,1.867C20.967,142.037,20.186,143.514,18.791,143.91z"/>
</g>
<g opacity="0.7">
	<path fill="#FFFFFF" d="M26.909,217.207c-1.959-4.724-1.141-7.349-1.141-7.349s-2.658,1.472-4.566,5.839
		c-1.383,3.165-2.308,8.253,2.587,8.183C27.897,223.82,28.232,220.398,26.909,217.207z M23.85,222.833c0,0-1.748-0.948-1.169-3.758
		c0.579-2.81,1.761-5.747,1.761-5.747s-0.877,3.419-1.157,6.181C23.027,222.043,23.85,222.833,23.85,222.833z"/>
	<path fill="#FFFFFF" d="M31.411,212.807c0,0-0.51,1.961-3.271,4.405c0.847,2.299,0.811,4.413-0.133,5.848
		c-0.502,0.763-1.471,1.656-3.294,1.905c0.275,0.28,0.607,0.552,1.013,0.811c4.127,2.632,6.014-2.183,6.501-5.602
		C32.899,215.456,31.411,212.807,31.411,212.807z M29.302,222.701c-0.984,2.695-2.969,2.582-2.969,2.582s1.115-0.24,2.228-2.53
		c1.213-2.498,2.155-6.297,2.155-6.297S30.286,220.006,29.302,222.701z"/>
	<path fill="#FFFFFF" d="M19.703,223.176c-1.197-1.828-0.772-4.389-0.191-6.245c-2.491-2.312-2.961-4.125-2.961-4.125
		s-1.488,2.649-0.816,7.367c0.487,3.419,2.374,8.235,6.501,5.602c0.385-0.246,0.7-0.504,0.967-0.769
		C21.242,224.872,20.216,223.96,19.703,223.176z M18.415,222.725c-0.984-2.695-1.169-6.269-1.169-6.269s0.698,3.824,1.911,6.321
		c1.112,2.29,2.228,2.53,2.228,2.53S19.4,225.42,18.415,222.725z"/>
</g>
<polygon fill="#1E1E1C" fill-opacity="0.5" points="46.317,204.32 46.317,109.038 128.833,61.398 211.349,109.038 211.349,204.32 
	128.833,251.96 "/>
<polygon fill="#1E1E1C" fill-opacity="0.5" points="54.378,199.665 54.378,113.693 128.833,70.706 203.288,113.693 203.288,199.665 
	128.833,242.651 "/>
<g>
	<linearGradient id="SVGID_1_" gradientUnits="userSpaceOnUse" x1="128.8331" y1="156.6419" x2="95.6526" y2="99.1716">
		<stop  offset="0" style="stop-color:#EBB16B;stop-opacity:0.8"/>
		<stop  offset="0.2656" style="stop-color:#E2A661;stop-opacity:0.7203"/>
		<stop  offset="0.6949" style="stop-color:#CB8B48;stop-opacity:0.5915"/>
		<stop  offset="1" style="stop-color:#B87435;stop-opacity:0.5"/>
	</linearGradient>
	<polygon fill="url(#SVGID_1_)" points="128.833,80.015 128.833,156.642 62.472,118.328 	"/>
	<linearGradient id="SVGID_2_" gradientUnits="userSpaceOnUse" x1="128.8331" y1="156.642" x2="162.0135" y2="99.1717">
		<stop  offset="0" style="stop-color:#EBB16B;stop-opacity:0.8"/>
		<stop  offset="0.2656" style="stop-color:#E2A661;stop-opacity:0.7203"/>
		<stop  offset="0.6949" style="stop-color:#CB8B48;stop-opacity:0.5915"/>
		<stop  offset="1" style="stop-color:#B87435;stop-opacity:0.5"/>
	</linearGradient>
	<polygon fill="url(#SVGID_2_)" points="195.194,118.329 128.833,156.642 128.833,80.015 	"/>
	<linearGradient id="SVGID_3_" gradientUnits="userSpaceOnUse" x1="128.833" y1="156.642" x2="195.194" y2="156.642">
		<stop  offset="0" style="stop-color:#EBB16B;stop-opacity:0.8"/>
		<stop  offset="0.2656" style="stop-color:#E2A661;stop-opacity:0.7203"/>
		<stop  offset="0.6949" style="stop-color:#CB8B48;stop-opacity:0.5915"/>
		<stop  offset="1" style="stop-color:#B87435;stop-opacity:0.5"/>
	</linearGradient>
	<polygon fill="url(#SVGID_3_)" points="195.194,194.955 128.833,156.642 195.194,118.329 	"/>
	<linearGradient id="SVGID_4_" gradientUnits="userSpaceOnUse" x1="128.8329" y1="156.642" x2="162.0134" y2="214.1122">
		<stop  offset="0" style="stop-color:#EBB16B;stop-opacity:0.8"/>
		<stop  offset="0.2656" style="stop-color:#E2A661;stop-opacity:0.7203"/>
		<stop  offset="0.6949" style="stop-color:#CB8B48;stop-opacity:0.5915"/>
		<stop  offset="1" style="stop-color:#B87435;stop-opacity:0.5"/>
	</linearGradient>
	<polygon fill="url(#SVGID_4_)" points="128.833,233.269 128.833,156.642 195.194,194.955 	"/>
	<linearGradient id="SVGID_5_" gradientUnits="userSpaceOnUse" x1="128.8329" y1="156.6419" x2="95.6525" y2="214.1122">
		<stop  offset="0" style="stop-color:#EBB16B;stop-opacity:0.8"/>
		<stop  offset="0.2656" style="stop-color:#E2A661;stop-opacity:0.7203"/>
		<stop  offset="0.6949" style="stop-color:#CB8B48;stop-opacity:0.5915"/>
		<stop  offset="1" style="stop-color:#B87435;stop-opacity:0.5"/>
	</linearGradient>
	<polygon fill="url(#SVGID_5_)" points="62.472,194.955 128.833,156.642 128.833,233.269 	"/>
	<linearGradient id="SVGID_6_" gradientUnits="userSpaceOnUse" x1="128.833" y1="156.6418" x2="62.4721" y2="156.6418">
		<stop  offset="0" style="stop-color:#EBB16B;stop-opacity:0.8"/>
		<stop  offset="0.2656" style="stop-color:#E2A661;stop-opacity:0.7203"/>
		<stop  offset="0.6949" style="stop-color:#CB8B48;stop-opacity:0.5915"/>
		<stop  offset="1" style="stop-color:#B87435;stop-opacity:0.5"/>
	</linearGradient>
	<polygon fill="url(#SVGID_6_)" points="62.472,118.328 128.833,156.642 62.472,194.955 	"/>
</g>
<g>
	<polygon fill="#1E1E1C" fill-opacity="0.05" points="128.833,79.701 128.833,156.641 62.201,118.171 	"/>
	<polygon fill="#1E1E1C" fill-opacity="0.15" points="195.465,118.171 128.833,156.641 128.833,79.701 	"/>
	<polygon fill="#1E1E1C" fill-opacity="0.3" points="195.465,195.11 128.833,156.641 195.465,118.171 	"/>
	<polygon fill="#1E1E1C" fill-opacity="0.35" points="128.833,233.58 128.833,156.641 195.465,195.11 	"/>
	<polygon fill="#1E1E1C" fill-opacity="0.25" points="62.201,195.11 128.833,156.641 128.833,233.58 	"/>
	<polygon fill="#1E1E1C" fill-opacity="0.1" points="62.201,118.171 128.833,156.641 62.201,195.11 	"/>
</g>
<g opacity="0.7">
	<polygon fill="#FFFFFF" points="18.896,99.722 17.523,103.248 30.439,103.248 29.065,99.722 	"/>
	<polygon fill="#FFFFFF" points="19.06,93.812 28.901,93.812 32.591,89.908 15.37,89.908 	"/>
	<rect x="19.06" y="94.802" fill="#FFFFFF" width="9.841" height="3.93"/>
</g>
<polygon fill="#1E1F1D" fill-opacity="0.75" points="216.161,86.664 233.685,76.546 251.21,86.664 251.21,106.899 233.685,117.017 
	216.161,106.899 "/>
<polygon fill="#1E1F1D" fill-opacity="0.75" points="216.161,127.135 233.685,117.017 251.21,127.135 251.21,147.371 
	233.685,157.488 216.161,147.371 "/>
<polygon fill="#1E1F1D" fill-opacity="0.75" points="216.161,167.606 233.685,157.488 251.21,167.606 251.21,187.842 
	233.685,197.96 216.161,187.842 "/>
<polygon fill="#1E1F1D" fill-opacity="0.75" points="216.161,228.313 233.685,238.431 251.21,228.313 251.21,208.077 
	233.685,197.96 216.161,208.077 "/>
<polygon fill="#1E1F1D" fill-opacity="0.65" points="46.216,210.604 46.216,222.735 124.776,268.114 124.79,255.99 "/>
<polygon fill="#1E1F1D" fill-opacity="0.65" points="46.216,224.776 46.216,231.033 41.129,233.969 124.76,282.277 124.774,270.153 
	"/>
<polygon fill="#1E1F1D" fill-opacity="0.65" points="39.362,234.99 28.859,241.054 124.743,296.44 124.757,284.316 "/>
<polygon fill="#1E1F1D" fill-opacity="0.65" points="211.45,210.604 211.45,222.735 132.89,268.114 132.876,255.99 "/>
<polygon fill="#1E1F1D" fill-opacity="0.65" points="211.45,224.776 211.45,231.033 216.537,233.969 132.906,282.277 
	132.892,270.153 "/>
<polygon fill="#1E1F1D" fill-opacity="0.65" points="218.304,234.99 228.807,241.054 132.923,296.44 132.909,284.316 "/>
<polygon fill="#1E1F1D" fill-opacity="0.65" points="157.951,31.301 157.881,43.392 218.303,78.294 228.807,72.23 "/>
<polygon fill="#1E1F1D" fill-opacity="0.65" points="157.543,45.238 146.968,51.261 211.45,88.508 211.45,82.251 216.537,79.314 "/>
<polygon fill="#1E1F1D" fill-opacity="0.65" points="145.189,52.275 134.615,58.298 211.45,102.68 211.45,90.549 "/>
</svg>
